# xmcd CD database file
# Copyright (C) 1993-1998 Ti Kan
#
# Track frame offsets:
#	150
#	40037
#	74837
#	108812
#	140162
#	172787
#
# Disc length: 2640 seconds
#
# Revision: 0
# Processed by: cddbd v1.4b41PL1 Copyright (c) Steve Scherf et al.
# Submitted via: CDmax 1.5
#
DISCID=4f0a4e06
DTITLE=Bukka White - Baton Rouge Mosby Street
DYEAR=1900
DGENRE=
TTITLE0=Miss Mary
TTITLE1=Stone
TTITLE2=Poor Boy
TTITLE3=Black Cat
TTITLE4=Tippin' In
TTITLE5=Sic' Em Dogs On
EXTD=
EXTT0=
EXTT1=
EXTT2=
EXTT3=
EXTT4=
EXTT5=
PLAYORDER=
